<svg id="visual" viewBox="0 0 900 600" width="900" height="600" xmlns="http://www.w3.org/2000/svg" xmlns:xlink="http://www.w3.org/1999/xlink" version="1.1"><path d="M0 57L25 55.5C50 54 100 51 150 52.3C200 53.7 250 59.3 300 60.7C350 62 400 59 450 55.3C500 51.7 550 47.3 600 45.7C650 44 700 45 750 45.7C800 46.3 850 46.7 875 46.8L900 47L900 0L875 0C850 0 800 0 750 0C700 0 650 0 600 0C550 0 500 0 450 0C400 0 350 0 300 0C250 0 200 0 150 0C100 0 50 0 25 0L0 0Z" fill="#0066FF" stroke-linecap="round" stroke-linejoin="miter"></path></svg>