<svg id="visual" viewBox="0 0 900 600" width="900" height="600" xmlns="http://www.w3.org/2000/svg" xmlns:xlink="http://www.w3.org/1999/xlink" version="1.1"><path d="M0 523L75 525L150 534L225 504L300 490L375 532L450 492L525 509L600 503L675 520L750 518L825 493L900 525L900 601L825 601L750 601L675 601L600 601L525 601L450 601L375 601L300 601L225 601L150 601L75 601L0 601Z" fill="#f5730a"></path><path d="M0 515L75 525L150 507L225 511L300 546L375 536L450 533L525 538L600 546L675 513L750 525L825 515L900 548L900 601L825 601L750 601L675 601L600 601L525 601L450 601L375 601L300 601L225 601L150 601L75 601L0 601Z" fill="#df6009"></path><path d="M0 545L75 543L150 554L225 526L300 531L375 535L450 525L525 552L600 535L675 546L750 528L825 557L900 533L900 601L825 601L750 601L675 601L600 601L525 601L450 601L375 601L300 601L225 601L150 601L75 601L0 601Z" fill="#c94d08"></path><path d="M0 543L75 556L150 550L225 570L300 559L375 538L450 539L525 559L600 569L675 549L750 556L825 567L900 564L900 601L825 601L750 601L675 601L600 601L525 601L450 601L375 601L300 601L225 601L150 601L75 601L0 601Z" fill="#b33b06"></path><path d="M0 567L75 573L150 579L225 579L300 568L375 556L450 567L525 562L600 560L675 564L750 558L825 567L900 557L900 601L825 601L750 601L675 601L600 601L525 601L450 601L375 601L300 601L225 601L150 601L75 601L0 601Z" fill="#9d2804"></path><path d="M0 580L75 592L150 581L225 572L300 586L375 576L450 594L525 588L600 592L675 577L750 581L825 573L900 573L900 601L825 601L750 601L675 601L600 601L525 601L450 601L375 601L300 601L225 601L150 601L75 601L0 601Z" fill="#871400"></path></svg>